<svg width="20" height="20" viewBox="0 0 20 20" fill="none" xmlns="http://www.w3.org/2000/svg">
<path d="M18.3346 5.20835V9.45833C18.3346 10.5167 17.9846 11.4083 17.3596 12.025C16.743 12.65 15.8513 13 14.793 13V14.5083C14.793 15.075 14.1596 15.4167 13.693 15.1L12.8846 14.5667C12.9596 14.3083 12.993 14.025 12.993 13.725V10.3334C12.993 8.63337 11.8596 7.50002 10.1596 7.50002H4.5013C4.38463 7.50002 4.2763 7.50837 4.16797 7.5167V5.20835C4.16797 3.08335 5.58464 1.66669 7.70964 1.66669H14.793C16.918 1.66669 18.3346 3.08335 18.3346 5.20835Z" stroke="#505050" stroke-width="1.4" stroke-miterlimit="10" stroke-linecap="round" stroke-linejoin="round"/>
<path d="M12.993 10.3334V13.725C12.993 14.025 12.9596 14.3083 12.8846 14.5667C12.5763 15.7917 11.5596 16.5583 10.1596 16.5583H7.89297L5.3763 18.2333C5.0013 18.4917 4.5013 18.2167 4.5013 17.7667V16.5583C3.6513 16.5583 2.94297 16.275 2.4513 15.7833C1.9513 15.2833 1.66797 14.575 1.66797 13.725V10.3334C1.66797 8.75002 2.6513 7.65835 4.16797 7.51668C4.2763 7.50835 4.38463 7.5 4.5013 7.5H10.1596C11.8596 7.5 12.993 8.63335 12.993 10.3334Z" stroke="#505050" stroke-width="1.4" stroke-miterlimit="10" stroke-linecap="round" stroke-linejoin="round"/>
</svg>
