<svg width="56" height="56" viewBox="0 0 56 56" fill="none" xmlns="http://www.w3.org/2000/svg">
<rect x="0.5" y="0.5" width="55" height="55" rx="27.5" fill="#D73B3B"/>
<rect x="0.5" y="0.5" width="55" height="55" rx="27.5" stroke="url(#paint0_linear_24984_16067)"/>
<path d="M18.4095 30.2073C18.196 29.9965 18.0234 29.7325 17.9094 29.4209C17.7954 29.1093 17.7226 28.7798 17.7026 28.4205C17.6692 27.8138 17.7541 27.2652 17.9629 26.7571C18.1659 26.2549 18.4694 25.7933 18.8792 25.3782C19.4763 24.7732 20.2568 24.2673 21.2206 23.8722C22.1845 23.477 23.2491 23.1814 24.4088 22.9913C25.5802 22.801 26.7698 22.6991 27.9895 22.6853C29.2093 22.6833 30.4002 22.7699 31.5622 22.9451C32.7183 23.1262 33.7808 23.4022 34.7319 23.779C35.689 24.1618 36.4759 24.6576 37.0927 25.2664C37.496 25.6645 37.8112 26.1162 38.0265 26.6098C38.2478 27.1093 38.3574 27.6625 38.3437 28.2695C38.3426 29.0179 38.1167 29.6145 37.6834 30.0534C37.5195 30.2194 37.32 30.3503 37.1025 30.4284C36.8791 30.5123 36.6377 30.5433 36.3781 30.4978L33.0806 29.9593C32.827 29.9197 32.6145 29.8622 32.4313 29.7868C32.2541 29.7172 32.1003 29.6239 31.9876 29.5127C31.8453 29.3722 31.7439 29.1901 31.6895 28.9725C31.6292 28.7607 31.5981 28.5075 31.5963 28.2247L31.5727 27.3115C31.5719 27.1818 31.524 27.0761 31.4291 26.9824C31.3817 26.9356 31.3343 26.9005 31.2752 26.8656C31.2102 26.8365 31.157 26.8192 31.1097 26.7959C30.8087 26.7095 30.3722 26.6416 29.8062 26.5981C29.2343 26.5605 28.639 26.5349 28.0203 26.533C27.3898 26.543 26.7948 26.5645 26.2176 26.6154C25.6523 26.6662 25.2226 26.7455 24.9168 26.8418C24.8757 26.8597 24.8228 26.8778 24.764 26.9017C24.6994 26.9316 24.6466 26.9732 24.5939 27.0266C24.4944 27.1274 24.4539 27.2396 24.4547 27.3692L24.4546 28.259C24.4565 28.5536 24.4286 28.8072 24.3652 29.0139C24.3135 29.2322 24.2204 29.4096 24.074 29.5579C23.9628 29.6706 23.822 29.7657 23.6398 29.8435C23.4577 29.9213 23.2459 29.9816 22.9987 30.0303L19.6673 30.6176C19.4083 30.6664 19.1784 30.6502 18.9657 30.569C18.7589 30.482 18.5755 30.3712 18.4095 30.2073Z" fill="white"/>
<defs>
<linearGradient id="paint0_linear_24984_16067" x1="9" y1="8.5" x2="48" y2="48" gradientUnits="userSpaceOnUse">
<stop stop-color="white"/>
<stop offset="0.3" stop-color="white" stop-opacity="0"/>
<stop offset="0.7" stop-color="white" stop-opacity="0"/>
<stop offset="1" stop-color="white"/>
</linearGradient>
</defs>
</svg>
